<svg width="14" height="18" viewBox="0 0 14 18" fill="none" xmlns="http://www.w3.org/2000/svg">
<path d="M7.00053 0L3.72781 3.27273H6.18235V10.6364H7.81871V3.27273H10.2733M11.9096 18H2.09144C1.18326 18 0.455078 17.2636 0.455078 16.3636V6.54545C0.455078 6.11146 0.62748 5.69525 0.934358 5.38837C1.24124 5.08149 1.65745 4.90909 2.09144 4.90909H4.54599V6.54545H2.09144V16.3636H11.9096V6.54545H9.45508V4.90909H11.9096C12.3436 4.90909 12.7598 5.08149 13.0667 5.38837C13.3736 5.69525 13.546 6.11146 13.546 6.54545V16.3636C13.546 16.7976 13.3736 17.2138 13.0667 17.5207C12.7598 17.8276 12.3436 18 11.9096 18Z" fill="white"/>
</svg>
